<svg id="Capa_1" enable-background="new 0 0 509.91 509.91" height="512" viewBox="0 0 509.91 509.91" width="512" xmlns="http://www.w3.org/2000/svg" xmlns:xlink="http://www.w3.org/1999/xlink"><linearGradient id="SVGID_1_" gradientUnits="userSpaceOnUse" x1="254.955" x2="254.955" y1="6.455" y2="503.455"><stop offset=".00000036422" stop-color="#a8abff"/><stop offset="1" stop-color="#fac8ff"/></linearGradient><linearGradient id="SVGID_2_" gradientUnits="userSpaceOnUse" x1="254.955" x2="254.955" y1="104.955" y2="404.955"><stop offset=".00000083866" stop-color="#96d1f3"/><stop offset="1" stop-color="#ccfff4"/></linearGradient><linearGradient id="SVGID_3_" gradientUnits="userSpaceOnUse" x1="254.955" x2="254.955" y1="0" y2="509.909"><stop offset=".00000011981" stop-color="#174fa3"/><stop offset="1" stop-color="#b044af"/></linearGradient><g><g><path d="m285.675 39.689 30.004-33.234c35.98 14.903 36.073 14.942 72.054 29.846l-2.284 44.716c17.342 17.342 26.103 26.103 43.445 43.445l44.716-2.284c14.903 35.98 14.942 36.073 29.846 72.054l-33.234 30.004v61.44l33.234 30.004c-14.904 35.98-14.942 36.073-29.846 72.054l-44.716-2.284c-17.342 17.342-26.103 26.103-43.445 43.445l2.284 44.716c-35.98 14.903-36.073 14.942-72.054 29.846l-30.004-33.234c-24.525 0-36.915 0-61.44 0l-30.004 33.234c-35.98-14.904-36.073-14.942-72.054-29.846l2.284-44.716c-17.342-17.342-26.103-26.103-43.445-43.445l-44.716 2.282c-14.903-35.98-14.942-36.073-29.846-72.054l33.234-30.004c0-24.525 0-36.915 0-61.44l-33.233-30.003c14.903-35.98 14.942-36.073 29.846-72.054l44.716 2.284c17.342-17.342 26.103-26.103 43.445-43.445l-2.285-44.716c35.98-14.903 36.073-14.942 72.054-29.846l30.004 33.234c24.525.001 36.914.001 61.44.001z" fill="url(#SVGID_1_)"/><circle cx="254.955" cy="254.955" fill="url(#SVGID_2_)" r="150"/></g><path d="m475.555 227.877 34.354-31.015-33.597-81.109-46.224 2.361-38.293-38.294 2.36-46.223-81.107-33.597-31.016 34.354h-54.156l-31.015-34.354-81.109 33.597 2.361 46.223-38.293 38.294-46.223-2.361-33.597 81.109 34.354 31.015v54.156l-34.354 31.015 33.597 81.109 46.223-2.361 38.294 38.294-2.361 46.223 81.109 33.597 31.015-34.354h54.156l31.016 34.354 81.107-33.597-2.36-46.223 38.294-38.294 46.224 2.361 33.597-81.109-34.354-31.015v-54.156zm16.445 89.211-25.493 61.548-42.31-2.161-47.722 47.722 2.161 42.309-61.549 25.494-28.389-31.445h-67.488l-28.389 31.445-61.548-25.494 2.161-42.309-47.722-47.722-42.309 2.161-25.494-61.548 31.445-28.389v-67.488l-31.445-28.389 25.494-61.548 42.309 2.161 47.722-47.722-2.161-42.309 61.548-25.494 28.389 31.445h67.488l28.389-31.445 61.549 25.494-2.161 42.309 47.722 47.722 42.31-2.161 25.493 61.548-31.444 28.389v67.488zm-376.736-163.361-12.139-8.812c3.062-4.218 6.342-8.36 9.746-12.31l11.362 9.793c-3.132 3.634-6.15 7.446-8.969 11.329zm206.269-57.957c-4.427-1.854-8.985-3.541-13.55-5.014l4.605-14.275c4.966 1.602 9.924 3.437 14.739 5.453zm-99.179-10.24-2.818-14.733c5.111-.977 10.335-1.751 15.529-2.299l1.574 14.917c-4.779.504-9.585 1.216-14.285 2.115zm-41.075 13.403-6.415-13.559c4.714-2.23 9.578-4.286 14.457-6.108l5.25 14.051c-4.486 1.676-8.957 3.566-13.292 5.616zm-86.831 92.694-13.952-5.509c1.915-4.849 4.062-9.679 6.381-14.358l13.438 6.664c-2.133 4.303-4.107 8.745-5.867 13.203zm-10.676 41.894-14.886-1.844c.641-5.178 1.51-10.388 2.582-15.486l14.679 3.086c-.986 4.689-1.785 9.481-2.375 14.244zm.048 43.247-14.882 1.878c-.651-5.162-1.093-10.423-1.313-15.639l14.986-.633c.203 4.802.61 9.644 1.209 14.394zm275.181-159.413c-3.826-2.898-7.821-5.669-11.873-8.236l8.027-12.671c4.403 2.789 8.744 5.8 12.902 8.949zm30.951 30.202c-2.986-3.75-6.171-7.422-9.464-10.915l10.914-10.291c3.578 3.795 7.038 7.786 10.284 11.861zm32.034 64.134 14.523-3.751c1.302 5.04 2.406 10.206 3.282 15.354l-14.787 2.518c-.805-4.736-1.821-9.487-3.018-14.121zm-142.111-127.45c-4.738-.686-9.572-1.18-14.368-1.469l.902-14.973c5.211.314 10.464.851 15.614 1.596zm132.568 100.223c-1.961-4.374-4.133-8.718-6.454-12.913l13.125-7.263c2.523 4.56 4.884 9.284 7.017 14.039zm-267.608-62.293-9.582-11.54c4.011-3.331 8.211-6.532 12.484-9.515l8.587 12.299c-3.931 2.744-7.797 5.691-11.489 8.756zm235.891 250.843 10.936 10.268c-3.569 3.801-7.342 7.498-11.213 10.987l-10.043-11.143c3.563-3.211 7.035-6.614 10.32-10.112zm-72.383 46.022 4.639 14.265c-4.959 1.612-10.048 3.033-15.126 4.222l-3.42-14.605c4.669-1.094 9.349-2.4 13.907-3.882zm97.823-80.996 13.139 7.236c-2.514 4.563-5.254 9.081-8.146 13.427l-12.488-8.309c2.661-3.999 5.182-8.155 7.495-12.354zm-58.735 62.559 8.053 12.655c-4.402 2.801-8.973 5.448-13.584 7.865l-6.965-13.285c4.241-2.223 8.446-4.657 12.496-7.235zm74.65-102.749 14.531 3.718c-1.294 5.058-2.818 10.117-4.531 15.037l-14.166-4.932c1.574-4.523 2.976-9.174 4.166-13.823zm5.374-43.289h15v.394c0 5.22-.218 10.494-.646 15.675l-14.949-1.238c.396-4.771.596-9.628.596-14.437v-.394zm-293.105 123.725c3.431 3.355 7.045 6.607 10.742 9.665l-9.561 11.559c-4.016-3.322-7.942-6.854-11.669-10.5zm-44.529-73.295c1.388 4.589 2.99 9.175 4.761 13.631l-13.939 5.539c-1.926-4.847-3.668-9.835-5.179-14.826zm78.976 99.441c4.157 2.402 8.464 4.654 12.802 6.696l-6.386 13.572c-4.718-2.219-9.401-4.669-13.92-7.28zm-61.349-59.995c2.491 4.096 5.187 8.139 8.013 12.017l-12.122 8.835c-3.071-4.214-6.001-8.607-8.708-13.059zm101.213 76.738c4.615 1.283 9.346 2.385 14.061 3.275l-2.784 14.739c-5.128-.969-10.273-2.167-15.293-3.562zm57.225 5.94.936 14.971c-3.923.245-7.908.369-11.844.369-1.312.032-2.565-.012-3.843-.038l.3-14.997c1.177.023 2.319.011 3.542.035 3.626 0 7.297-.114 10.909-.34zm-10.931-329.66c-86.846 0-157.5 70.654-157.5 157.5s70.654 157.5 157.5 157.5 157.5-70.654 157.5-157.5-70.655-157.5-157.5-157.5zm-50.019 24.069c-6.229 6.623-12.027 14.538-17.271 23.684-1.332 2.324-2.6 4.727-3.837 7.166-5.395-3.116-10.601-6.593-15.58-10.421 11.064-8.51 23.407-15.433 36.688-20.429zm-48.307 30.381c6.634 5.314 13.652 10.058 20.979 14.198-9.665 23.933-15.24 51.922-16.048 81.351h-48.909c1.954-37.492 18.466-71.195 43.978-95.549zm-43.977 110.55h48.909c.808 29.43 6.383 57.418 16.048 81.351-7.327 4.141-14.345 8.884-20.979 14.198-25.513-24.353-42.025-58.056-43.978-95.549zm55.595 105.502c4.979-3.828 10.185-7.305 15.58-10.421 1.237 2.439 2.505 4.842 3.837 7.166 5.244 9.146 11.041 17.061 17.271 23.684-13.28-4.996-25.623-11.919-36.688-20.429zm79.208 28.834c-17.381-3.087-33.766-16.858-46.776-39.55-1.21-2.111-2.363-4.294-3.488-6.511 15.795-7.023 32.819-11.147 50.265-12.069v58.13zm0-73.153c-19.582.935-38.696 5.525-56.41 13.409-8.675-21.904-13.697-47.538-14.479-74.592h70.888v61.183zm0-76.183h-70.888c.782-27.054 5.803-52.687 14.479-74.592 17.713 7.884 36.828 12.473 56.41 13.409v61.183zm0-76.206c-17.446-.922-34.47-5.046-50.265-12.069 1.125-2.217 2.278-4.4 3.488-6.511 13.01-22.692 29.395-36.463 46.776-39.55v58.13zm149.803 76.206h-48.909c-.808-29.429-6.382-57.418-16.048-81.351 7.327-4.141 14.345-8.884 20.979-14.198 25.512 24.353 42.024 58.056 43.978 95.549zm-55.596-105.502c-4.979 3.828-10.185 7.305-15.581 10.421-1.237-2.439-2.505-4.842-3.838-7.166-5.244-9.146-11.042-17.06-17.271-23.684 13.282 4.995 25.625 11.919 36.69 20.429zm-79.207-28.834c17.381 3.087 33.766 16.858 46.776 39.55 1.21 2.111 2.363 4.294 3.488 6.511-15.795 7.023-32.819 11.147-50.265 12.069v-58.13zm0 73.153c19.582-.935 38.696-5.525 56.409-13.409 8.675 21.904 13.697 47.537 14.479 74.591h-70.888zm0 76.183h70.888c-.782 27.054-5.803 52.687-14.479 74.591-17.713-7.884-36.827-12.473-56.409-13.409zm0 134.336v-58.13c17.446.922 34.47 5.046 50.265 12.069-1.125 2.217-2.278 4.4-3.488 6.511-13.011 22.692-29.396 36.463-46.777 39.55zm42.518-8.406c6.229-6.623 12.027-14.538 17.271-23.684 1.333-2.324 2.6-4.727 3.838-7.166 5.395 3.116 10.602 6.593 15.581 10.421-11.066 8.511-23.409 15.434-36.69 20.429zm48.307-30.38c-6.634-5.314-13.652-10.058-20.979-14.198 9.666-23.933 15.24-51.922 16.048-81.351h48.909c-1.954 37.492-18.466 71.195-43.978 95.549z" fill="url(#SVGID_3_)"/></g></svg>